<svg width="153" height="38" viewBox="0 0 153 38" fill="none" xmlns="http://www.w3.org/2000/svg">
<g clip-path="url(#clip0_22724_6546)">
<path d="M38 19.1161C38 8.55857 29.4934 0 19 0C8.50658 0 0 8.55857 0 19.1161C0 28.6575 6.94803 36.5659 16.0312 38V24.6419H11.207V19.1161H16.0312V14.9046C16.0312 10.1136 18.8678 7.46723 23.2078 7.46723C25.2866 7.46723 27.4609 7.84059 27.4609 7.84059V12.545H25.0651C22.7048 12.545 21.9688 14.0185 21.9688 15.5302V19.1161H27.2383L26.3959 24.6419H21.9688V38C31.052 36.5659 38 28.6575 38 19.1161Z" fill="#24A3FF"/>
</g>
<path d="M53.064 17.144C52.192 17.144 51.404 16.956 50.7 16.58C50.004 16.204 49.456 15.688 49.056 15.032C48.664 14.368 48.468 13.624 48.468 12.8C48.468 11.976 48.664 11.236 49.056 10.58C49.456 9.916 50.004 9.396 50.7 9.02C51.404 8.644 52.192 8.456 53.064 8.456C53.936 8.456 54.72 8.644 55.416 9.02C56.112 9.396 56.66 9.916 57.06 10.58C57.46 11.236 57.66 11.976 57.66 12.8C57.66 13.624 57.46 14.368 57.06 15.032C56.66 15.688 56.112 16.204 55.416 16.58C54.72 16.956 53.936 17.144 53.064 17.144ZM53.064 15.488C53.56 15.488 54.008 15.376 54.408 15.152C54.808 14.92 55.12 14.6 55.344 14.192C55.576 13.784 55.692 13.32 55.692 12.8C55.692 12.28 55.576 11.816 55.344 11.408C55.12 11 54.808 10.684 54.408 10.46C54.008 10.228 53.56 10.112 53.064 10.112C52.568 10.112 52.12 10.228 51.72 10.46C51.32 10.684 51.004 11 50.772 11.408C50.548 11.816 50.436 12.28 50.436 12.8C50.436 13.32 50.548 13.784 50.772 14.192C51.004 14.6 51.32 14.92 51.72 15.152C52.12 15.376 52.568 15.488 53.064 15.488ZM63.853 17.144C62.653 17.144 61.717 16.812 61.045 16.148C60.381 15.484 60.049 14.536 60.049 13.304V8.6H61.993V13.232C61.993 14.736 62.617 15.488 63.865 15.488C64.473 15.488 64.937 15.308 65.257 14.948C65.577 14.58 65.737 14.008 65.737 13.232V8.6H67.657V13.304C67.657 14.536 67.321 15.484 66.649 16.148C65.985 16.812 65.053 17.144 63.853 17.144ZM75.93 17L74.31 14.66H74.214H72.522V17H70.578V8.6H74.214C74.958 8.6 75.602 8.724 76.146 8.972C76.698 9.22 77.122 9.572 77.418 10.028C77.714 10.484 77.862 11.024 77.862 11.648C77.862 12.272 77.71 12.812 77.406 13.268C77.11 13.716 76.686 14.06 76.134 14.3L78.018 17H75.93ZM75.894 11.648C75.894 11.176 75.742 10.816 75.438 10.568C75.134 10.312 74.69 10.184 74.106 10.184H72.522V13.112H74.106C74.69 13.112 75.134 12.984 75.438 12.728C75.742 12.472 75.894 12.112 75.894 11.648ZM88.4367 8.6C89.1807 8.6 89.8247 8.724 90.3687 8.972C90.9207 9.22 91.3447 9.572 91.6407 10.028C91.9367 10.484 92.0847 11.024 92.0847 11.648C92.0847 12.264 91.9367 12.804 91.6407 13.268C91.3447 13.724 90.9207 14.076 90.3687 14.324C89.8247 14.564 89.1807 14.684 88.4367 14.684H86.7447V17H84.8007V8.6H88.4367ZM88.3287 13.1C88.9127 13.1 89.3567 12.976 89.6607 12.728C89.9647 12.472 90.1167 12.112 90.1167 11.648C90.1167 11.176 89.9647 10.816 89.6607 10.568C89.3567 10.312 88.9127 10.184 88.3287 10.184H86.7447V13.1H88.3287ZM99.5827 15.2H95.6827L94.9387 17H92.9467L96.6907 8.6H98.6107L102.367 17H100.327L99.5827 15.2ZM98.9707 13.724L97.6387 10.508L96.3067 13.724H98.9707ZM109.797 12.668H111.573V16.076C111.117 16.42 110.589 16.684 109.989 16.868C109.389 17.052 108.785 17.144 108.177 17.144C107.305 17.144 106.521 16.96 105.825 16.592C105.129 16.216 104.581 15.7 104.181 15.044C103.789 14.38 103.593 13.632 103.593 12.8C103.593 11.968 103.789 11.224 104.181 10.568C104.581 9.904 105.133 9.388 105.837 9.02C106.541 8.644 107.333 8.456 108.213 8.456C108.949 8.456 109.617 8.58 110.217 8.828C110.817 9.076 111.321 9.436 111.729 9.908L110.481 11.06C109.881 10.428 109.157 10.112 108.309 10.112C107.773 10.112 107.297 10.224 106.881 10.448C106.465 10.672 106.141 10.988 105.909 11.396C105.677 11.804 105.561 12.272 105.561 12.8C105.561 13.32 105.677 13.784 105.909 14.192C106.141 14.6 106.461 14.92 106.869 15.152C107.285 15.376 107.757 15.488 108.285 15.488C108.845 15.488 109.349 15.368 109.797 15.128V12.668ZM120.883 15.44V17H114.379V8.6H120.727V10.16H116.311V11.984H120.211V13.496H116.311V15.44H120.883ZM53.064 33.144C52.192 33.144 51.404 32.956 50.7 32.58C50.004 32.204 49.456 31.688 49.056 31.032C48.664 30.368 48.468 29.624 48.468 28.8C48.468 27.976 48.664 27.236 49.056 26.58C49.456 25.916 50.004 25.396 50.7 25.02C51.404 24.644 52.192 24.456 53.064 24.456C53.936 24.456 54.72 24.644 55.416 25.02C56.112 25.396 56.66 25.916 57.06 26.58C57.46 27.236 57.66 27.976 57.66 28.8C57.66 29.624 57.46 30.368 57.06 31.032C56.66 31.688 56.112 32.204 55.416 32.58C54.72 32.956 53.936 33.144 53.064 33.144ZM53.064 31.488C53.56 31.488 54.008 31.376 54.408 31.152C54.808 30.92 55.12 30.6 55.344 30.192C55.576 29.784 55.692 29.32 55.692 28.8C55.692 28.28 55.576 27.816 55.344 27.408C55.12 27 54.808 26.684 54.408 26.46C54.008 26.228 53.56 26.112 53.064 26.112C52.568 26.112 52.12 26.228 51.72 26.46C51.32 26.684 51.004 27 50.772 27.408C50.548 27.816 50.436 28.28 50.436 28.8C50.436 29.32 50.548 29.784 50.772 30.192C51.004 30.6 51.32 30.92 51.72 31.152C52.12 31.376 52.568 31.488 53.064 31.488ZM67.825 24.6V33H66.229L62.041 27.9V33H60.121V24.6H61.729L65.905 29.7V24.6H67.825ZM77.1548 26.16V28.38H81.0428V29.94H77.1548V33H75.2108V24.6H81.5588V26.16H77.1548ZM89.0553 31.2H85.1553L84.4113 33H82.4193L86.1633 24.6H88.0833L91.8393 33H89.7993L89.0553 31.2ZM88.4433 29.724L87.1113 26.508L85.7793 29.724H88.4433ZM97.6137 33.144C96.7577 33.144 95.9817 32.96 95.2857 32.592C94.5977 32.216 94.0537 31.7 93.6537 31.044C93.2617 30.38 93.0657 29.632 93.0657 28.8C93.0657 27.968 93.2617 27.224 93.6537 26.568C94.0537 25.904 94.5977 25.388 95.2857 25.02C95.9817 24.644 96.7617 24.456 97.6257 24.456C98.3537 24.456 99.0097 24.584 99.5937 24.84C100.186 25.096 100.682 25.464 101.082 25.944L99.8337 27.096C99.2657 26.44 98.5617 26.112 97.7217 26.112C97.2017 26.112 96.7377 26.228 96.3297 26.46C95.9217 26.684 95.6017 27 95.3697 27.408C95.1457 27.816 95.0337 28.28 95.0337 28.8C95.0337 29.32 95.1457 29.784 95.3697 30.192C95.6017 30.6 95.9217 30.92 96.3297 31.152C96.7377 31.376 97.2017 31.488 97.7217 31.488C98.5617 31.488 99.2657 31.156 99.8337 30.492L101.082 31.644C100.682 32.132 100.186 32.504 99.5937 32.76C99.0017 33.016 98.3417 33.144 97.6137 33.144ZM109.898 31.44V33H103.394V24.6H109.742V26.16H105.326V27.984H109.226V29.496H105.326V31.44H109.898ZM118.613 28.632C119.093 28.784 119.469 29.04 119.741 29.4C120.013 29.752 120.149 30.188 120.149 30.708C120.149 31.444 119.861 32.012 119.285 32.412C118.717 32.804 117.885 33 116.789 33H112.445V24.6H116.549C117.573 24.6 118.357 24.796 118.901 25.188C119.453 25.58 119.729 26.112 119.729 26.784C119.729 27.192 119.629 27.556 119.429 27.876C119.237 28.196 118.965 28.448 118.613 28.632ZM114.377 26.064V28.044H116.309C116.789 28.044 117.153 27.96 117.401 27.792C117.649 27.624 117.773 27.376 117.773 27.048C117.773 26.72 117.649 26.476 117.401 26.316C117.153 26.148 116.789 26.064 116.309 26.064H114.377ZM116.645 31.536C117.157 31.536 117.541 31.452 117.797 31.284C118.061 31.116 118.193 30.856 118.193 30.504C118.193 29.808 117.677 29.46 116.645 29.46H114.377V31.536H116.645ZM126.689 33.144C125.817 33.144 125.029 32.956 124.325 32.58C123.629 32.204 123.081 31.688 122.681 31.032C122.289 30.368 122.093 29.624 122.093 28.8C122.093 27.976 122.289 27.236 122.681 26.58C123.081 25.916 123.629 25.396 124.325 25.02C125.029 24.644 125.817 24.456 126.689 24.456C127.561 24.456 128.345 24.644 129.041 25.02C129.737 25.396 130.285 25.916 130.685 26.58C131.085 27.236 131.285 27.976 131.285 28.8C131.285 29.624 131.085 30.368 130.685 31.032C130.285 31.688 129.737 32.204 129.041 32.58C128.345 32.956 127.561 33.144 126.689 33.144ZM126.689 31.488C127.185 31.488 127.633 31.376 128.033 31.152C128.433 30.92 128.745 30.6 128.969 30.192C129.201 29.784 129.317 29.32 129.317 28.8C129.317 28.28 129.201 27.816 128.969 27.408C128.745 27 128.433 26.684 128.033 26.46C127.633 26.228 127.185 26.112 126.689 26.112C126.193 26.112 125.745 26.228 125.345 26.46C124.945 26.684 124.629 27 124.397 27.408C124.173 27.816 124.061 28.28 124.061 28.8C124.061 29.32 124.173 29.784 124.397 30.192C124.629 30.6 124.945 30.92 125.345 31.152C125.745 31.376 126.193 31.488 126.689 31.488ZM137.814 33.144C136.942 33.144 136.154 32.956 135.45 32.58C134.754 32.204 134.206 31.688 133.806 31.032C133.414 30.368 133.218 29.624 133.218 28.8C133.218 27.976 133.414 27.236 133.806 26.58C134.206 25.916 134.754 25.396 135.45 25.02C136.154 24.644 136.942 24.456 137.814 24.456C138.686 24.456 139.47 24.644 140.166 25.02C140.862 25.396 141.41 25.916 141.81 26.58C142.21 27.236 142.41 27.976 142.41 28.8C142.41 29.624 142.21 30.368 141.81 31.032C141.41 31.688 140.862 32.204 140.166 32.58C139.47 32.956 138.686 33.144 137.814 33.144ZM137.814 31.488C138.31 31.488 138.758 31.376 139.158 31.152C139.558 30.92 139.87 30.6 140.094 30.192C140.326 29.784 140.442 29.32 140.442 28.8C140.442 28.28 140.326 27.816 140.094 27.408C139.87 27 139.558 26.684 139.158 26.46C138.758 26.228 138.31 26.112 137.814 26.112C137.318 26.112 136.87 26.228 136.47 26.46C136.07 26.684 135.754 27 135.522 27.408C135.298 27.816 135.186 28.28 135.186 28.8C135.186 29.32 135.298 29.784 135.522 30.192C135.754 30.6 136.07 30.92 136.47 31.152C136.87 31.376 137.318 31.488 137.814 31.488ZM147.931 29.7L146.803 30.876V33H144.871V24.6H146.803V28.524L150.523 24.6H152.683L149.203 28.344L152.887 33H150.619L147.931 29.7Z" fill="#24A3FF"/>
<defs>
<clipPath id="clip0_22724_6546">
<rect width="38" height="38" fill="white"/>
</clipPath>
</defs>
</svg>
